<svg version="1.1" id="Layer_1" xmlns="http://www.w3.org/2000/svg" xmlns:xlink="http://www.w3.org/1999/xlink" x="0px" y="0px"
	 width="100%" viewBox="0 0 500 500" enable-background="new 0 0 500 500" xml:space="preserve">
<path fill="#8A57FE" opacity="1.000000" stroke="none" 
	d="
M36.000000,501.000000 
	C24.342293,501.000000 12.684584,501.000000 1.044398,501.000000 
	C1.044398,334.333313 1.044398,167.666656 1.044398,1.000000 
	C12.413425,1.000000 23.738054,1.000000 35.531342,1.468657 
	C36.000000,168.291550 36.000000,334.645782 36.000000,501.000000 
z"/>
<path fill="#8761FC" opacity="1.000000" stroke="none" 
	d="
M36.468658,501.000000 
	C36.000000,334.645782 36.000000,168.291550 36.000000,1.468657 
	C46.020893,1.000000 56.041790,1.000000 66.531342,1.468657 
	C67.000000,168.291550 67.000000,334.645782 67.000000,501.000000 
	C56.979107,501.000000 46.958210,501.000000 36.468658,501.000000 
z"/>
<path fill="#63CBEA" opacity="1.000000" stroke="none" 
	d="
M438.000000,501.000000 
	C427.979095,501.000000 417.958221,501.000000 407.468658,500.531342 
	C407.000000,435.579773 407.012146,371.096832 406.948883,306.613983 
	C406.946716,304.385803 406.190796,302.158356 405.958191,299.608521 
	C407.148743,295.524017 408.167297,291.761597 409.527893,287.826202 
	C410.246552,285.939514 410.936401,284.228180 410.949524,282.511658 
	C411.043549,270.224304 410.999969,257.935852 410.999969,245.647766 
	C411.000000,164.098511 411.000000,82.549255 411.000000,1.000000 
	C419.687561,1.000000 428.375122,1.000000 437.531342,1.468657 
	C438.000000,168.291550 438.000000,334.645782 438.000000,501.000000 
z"/>
<path fill="#8469FB" opacity="1.000000" stroke="none" 
	d="
M67.468658,501.000000 
	C67.000000,334.645782 67.000000,168.291550 67.000000,1.468657 
	C76.020897,1.000000 85.041786,1.000000 94.531342,1.468657 
	C95.000000,168.291550 95.000000,334.645782 95.000000,501.000000 
	C85.979103,501.000000 76.958214,501.000000 67.468658,501.000000 
z"/>
<path fill="#61D3E8" opacity="1.000000" stroke="none" 
	d="
M438.468658,501.000000 
	C438.000000,334.645782 438.000000,168.291550 438.000000,1.468657 
	C446.687561,1.000000 455.375122,1.000000 464.531342,1.468657 
	C465.000000,168.291550 465.000000,334.645782 465.000000,501.000000 
	C456.312439,501.000000 447.624878,501.000000 438.468658,501.000000 
z"/>
<path fill="#8271FA" opacity="1.000000" stroke="none" 
	d="
M95.468651,501.000000 
	C95.000000,334.645782 95.000000,168.291550 95.000000,1.468657 
	C103.020897,1.000000 111.041801,1.000000 119.531349,1.468657 
	C119.997292,63.902664 119.994583,125.868011 119.664215,188.120316 
	C119.336548,193.121460 119.336548,197.835648 119.336548,203.169434 
	C122.787758,203.169434 125.889977,203.169434 128.999100,203.547394 
	C129.334549,205.894623 129.663101,207.863892 129.541840,209.889343 
	C126.069397,209.957703 123.046776,209.969894 119.937439,209.833466 
	C119.676491,209.826096 119.502274,209.967346 119.269981,210.566650 
	C119.191917,239.565628 119.143852,268.106628 119.230545,296.647217 
	C119.235123,298.155334 120.380379,299.660004 120.995949,301.624481 
	C120.998199,368.388458 120.999100,434.694244 121.000000,501.000000 
	C112.645767,501.000000 104.291534,501.000000 95.468651,501.000000 
z"/>
<path fill="#5EDAE7" opacity="1.000000" stroke="none" 
	d="
M465.468536,501.000000 
	C465.000000,334.645782 465.000000,168.291550 465.000000,1.468657 
	C471.687653,1.000000 478.375275,1.000000 485.531464,1.466985 
	C486.000000,168.289307 486.000000,334.644653 486.000000,501.000000 
	C479.312347,501.000000 472.624725,501.000000 465.468536,501.000000 
z"/>
<path fill="#5DDFE6" opacity="1.000000" stroke="none" 
	d="
M486.470093,501.000000 
	C486.000000,334.644653 486.000000,168.289307 486.000000,1.466985 
	C490.995850,1.000000 495.991669,1.000000 500.964233,1.000000 
	C500.964233,167.666672 500.964233,334.333344 500.964233,501.000000 
	C496.265717,501.000000 491.602936,501.000000 486.470093,501.000000 
z"/>
<path fill="#7C81F7" opacity="1.000000" stroke="none" 
	d="
M181.000000,501.000000 
	C170.979111,501.000000 160.958206,501.000000 150.468658,500.531342 
	C149.998093,433.764008 149.996185,367.465363 150.455933,301.105225 
	C155.278946,300.974304 159.640259,300.904877 164.221634,300.804504 
	C164.741806,300.602203 164.853500,300.348022 164.824570,299.544006 
	C164.888306,279.790894 164.897400,260.504791 164.926865,241.218674 
	C164.931946,237.894226 164.901352,234.562103 165.112717,231.247910 
	C165.292389,228.430847 166.167511,226.156128 169.731140,225.958496 
	C173.589432,225.744507 174.580444,228.138885 175.028946,231.126617 
	C175.249130,232.593353 175.140335,234.113007 175.140762,235.608704 
	C175.146515,255.393814 175.137711,275.178925 175.157578,294.964050 
	C175.159500,296.871124 175.328506,298.777985 175.422607,300.740356 
	C177.700150,300.914520 179.347336,301.040497 180.995819,301.624695 
	C180.998077,368.388580 180.999039,434.694305 181.000000,501.000000 
z"/>
<path fill="#66C4EB" opacity="1.000000" stroke="none" 
	d="
M410.531372,1.000000 
	C411.000000,82.549255 411.000000,164.098511 410.999969,245.647766 
	C410.999969,257.935852 411.043549,270.224304 410.949524,282.511658 
	C410.936401,284.228180 410.246552,285.939514 409.422607,287.479492 
	C404.524536,277.703644 396.767914,275.072327 388.049255,279.730103 
	C388.023224,186.498901 388.011597,93.749451 388.000000,1.000000 
	C395.354248,1.000000 402.708496,1.000000 410.531372,1.000000 
z"/>
<path fill="#67C1EC" opacity="1.000000" stroke="none" 
	d="
M405.786194,299.930573 
	C406.190796,302.158356 406.946716,304.385803 406.948883,306.613983 
	C407.012146,371.096832 407.000000,435.579773 407.000000,500.531342 
	C397.312439,501.000000 387.624878,501.000000 377.468658,500.531342 
	C377.000000,435.064178 377.013336,370.065643 376.954346,305.067169 
	C376.951813,302.288239 376.280640,299.509857 376.099854,296.464844 
	C378.344208,293.815063 380.409576,291.431671 382.077576,289.506866 
	C383.568665,292.705750 384.505676,296.187012 386.550568,298.801941 
	C391.051727,304.557922 397.071411,304.693329 405.786194,299.930573 
z"/>
<path fill="#7F78F8" opacity="1.000000" stroke="none" 
	d="
M149.994263,301.166687 
	C149.996185,367.465363 149.998093,433.764008 150.000000,500.531342 
	C140.645767,501.000000 131.291550,501.000000 121.468658,501.000000 
	C120.999100,434.694244 120.998199,368.388458 121.461975,301.562439 
	C126.742645,301.026001 131.571198,300.792206 136.370270,301.069214 
	C139.640503,301.257996 141.279266,299.935242 142.237915,297.695923 
	C143.725479,302.769409 147.493607,300.237579 149.994263,301.166687 
z"/>
<path fill="#798AF5" opacity="1.000000" stroke="none" 
	d="
M181.468658,501.000000 
	C180.999039,434.694305 180.998077,368.388580 181.459045,301.564056 
	C186.614410,300.976288 191.307846,300.907379 196.219772,300.803894 
	C196.734222,300.598450 196.847870,300.345551 196.825775,299.543640 
	C196.947052,290.388855 197.021774,281.701111 197.281433,273.015106 
	C197.466370,273.016846 197.836380,273.020599 197.889526,273.461029 
	C197.797989,283.358337 200.620239,291.559113 208.024414,298.236450 
	C207.657700,301.967255 207.044891,305.265381 207.041977,308.563995 
	C206.985397,372.709320 207.000000,436.854645 207.000000,501.000000 
	C198.645767,501.000000 190.291534,501.000000 181.468658,501.000000 
z"/>
<path fill="#68BEEC" opacity="1.000000" stroke="none" 
	d="
M387.531464,1.000000 
	C388.011597,93.749451 388.023224,186.498901 387.906677,279.945953 
	C387.498596,280.846008 387.218628,281.048462 386.759827,281.277222 
	C386.337189,281.441010 386.243286,281.646881 386.126465,282.214020 
	C385.306732,282.013702 384.129517,281.553802 384.096100,281.022034 
	C383.806976,276.421844 384.169037,271.741333 383.483307,267.214020 
	C382.186890,258.654938 376.033295,253.173294 370.003845,247.298920 
	C370.002808,243.630142 370.002960,240.395309 370.465759,237.107513 
	C375.155182,237.054581 379.381897,237.054581 383.472412,237.054581 
	C385.333496,222.864746 379.642456,213.630096 366.968262,208.684784 
	C366.985107,139.137299 366.992554,70.068649 367.000000,1.000000 
	C373.687653,1.000000 380.375275,1.000000 387.531464,1.000000 
z"/>
<path fill="#7694F3" opacity="1.000000" stroke="none" 
	d="
M220.000000,1.000000 
	C227.020950,1.000000 234.041901,1.000000 241.558609,1.420393 
	C242.369095,4.138842 242.957001,6.436685 242.958771,8.734981 
	C243.008423,72.830658 243.031723,136.926437 242.905243,201.021912 
	C242.898621,204.376740 241.535477,207.728897 240.426620,211.014374 
	C233.365097,210.242081 226.680801,209.537750 219.997375,208.375183 
	C219.998840,138.944656 219.999420,69.972328 220.000000,1.000000 
z"/>
<path fill="#69BAED" opacity="1.000000" stroke="none" 
	d="
M375.920929,296.731232 
	C376.280640,299.509857 376.951813,302.288239 376.954346,305.067169 
	C377.013336,370.065643 377.000000,435.064178 377.000000,500.531342 
	C369.312408,501.000000 361.624847,501.000000 353.493286,500.596008 
	C353.343170,498.726593 353.882568,497.262695 353.891968,495.795410 
	C353.963776,484.592072 353.992126,473.387634 353.917908,462.184326 
	C353.821899,447.693298 353.475403,433.202789 353.495697,418.712433 
	C353.523621,398.786224 353.980743,378.859650 353.906708,358.934570 
	C353.836334,339.994293 353.319305,321.055725 353.455109,302.065948 
	C361.805878,302.577667 369.179779,300.972198 375.920929,296.731232 
z"/>
<path fill="#7790F4" opacity="1.000000" stroke="none" 
	d="
M207.468628,501.000000 
	C207.000000,436.854645 206.985397,372.709320 207.041977,308.563995 
	C207.044891,305.265381 207.657700,301.967255 208.376862,298.338867 
	C215.263016,302.368896 222.658478,302.109406 229.997589,302.602875 
	C229.998901,369.041718 229.999451,435.020844 230.000000,501.000000 
	C222.645752,501.000000 215.291504,501.000000 207.468628,501.000000 
z"/>
<path fill="#6AB7ED" opacity="1.000000" stroke="none" 
	d="
M366.531433,1.000000 
	C366.992554,70.068649 366.985107,139.137299 366.505859,208.627747 
	C359.021973,209.349716 352.009888,209.649857 344.998352,209.484467 
	C344.999268,139.679306 344.999634,70.339653 345.000000,1.000000 
	C352.020966,1.000000 359.041901,1.000000 366.531433,1.000000 
z"/>
<path fill="#7A88F6" opacity="1.000000" stroke="none" 
	d="
M178.000000,1.000000 
	C184.687637,1.000000 191.375290,1.000000 198.531464,1.468657 
	C199.000000,72.737808 198.982727,143.538330 199.079910,214.338684 
	C199.082962,216.560059 200.267792,218.779785 200.898209,221.385040 
	C199.875946,227.505859 198.857162,233.241928 197.652603,238.979996 
	C197.466812,238.982010 197.095230,238.985489 197.037781,238.525635 
	C196.956467,235.264618 197.001419,232.460892 196.897217,229.662735 
	C196.347092,214.889206 191.493576,209.558762 177.997086,208.375214 
	C177.998672,138.944672 177.999344,69.972336 178.000000,1.000000 
z"/>
<path fill="#788EF5" opacity="1.000000" stroke="none" 
	d="
M200.901688,221.000290 
	C200.267792,218.779785 199.082962,216.560059 199.079910,214.338684 
	C198.982727,143.538330 199.000000,72.737808 199.000000,1.468657 
	C205.687637,1.000000 212.375290,1.000000 219.531464,1.000000 
	C219.999420,69.972328 219.998840,138.944656 219.588699,208.431335 
	C210.612198,209.212051 205.101532,214.112427 200.901688,221.000290 
z"/>
<path fill="#71A2F1" opacity="1.000000" stroke="none" 
	d="
M292.000000,501.000000 
	C285.645599,501.000000 279.291199,501.000000 272.468384,500.531342 
	C272.000000,437.896057 272.019104,375.729370 271.956970,313.562805 
	C271.952820,309.430054 271.331512,305.297913 271.421539,301.103943 
	C275.566040,301.316589 275.105011,298.671448 275.105377,296.361511 
	C275.108521,275.558380 275.070770,254.755035 275.185181,233.952515 
	C275.193665,232.411026 275.954285,229.839325 276.937866,229.522079 
	C280.596649,228.341995 280.834137,231.003082 280.830780,233.794601 
	C280.808563,252.267441 280.767212,270.741089 280.917603,289.212952 
	C280.980682,296.959686 284.298248,300.563202 291.998718,302.560669 
	C291.999451,369.015442 291.999725,435.007721 292.000000,501.000000 
z"/>
<path fill="#6CB1EE" opacity="1.000000" stroke="none" 
	d="
M344.531464,1.000000 
	C344.999634,70.339653 344.999268,139.679306 344.708740,209.676651 
	C339.696930,213.864258 334.975281,217.394165 329.869629,221.211136 
	C329.869629,217.566025 329.869629,213.787521 329.818726,209.788788 
	C329.590942,209.278610 329.333618,209.151245 328.579803,209.152100 
	C326.775238,209.043655 325.386719,208.969559 323.998657,208.486343 
	C323.998718,206.440765 323.998322,204.804306 324.431091,203.111145 
	C326.443634,202.914276 328.022980,202.774078 329.662598,202.628540 
	C329.662598,197.619598 329.662598,193.073090 329.662598,188.321640 
	C327.564117,188.141342 325.781006,187.988129 323.998413,187.376617 
	C323.999298,124.945534 323.999634,62.972767 324.000000,1.000000 
	C330.687653,1.000000 337.375275,1.000000 344.531464,1.000000 
z"/>
<path fill="#72A0F1" opacity="1.000000" stroke="none" 
	d="
M263.000000,1.000000 
	C269.687653,1.000000 276.375275,1.000000 283.558655,1.420394 
	C284.369568,4.968022 284.957031,8.095017 284.959778,11.222528 
	C285.013092,72.093086 284.998169,132.963715 284.570526,193.893845 
	C283.037262,194.986420 281.149872,195.903549 280.975952,197.075027 
	C280.519897,200.146820 280.810211,203.329529 280.804840,206.468048 
	C280.792145,213.882843 280.754608,213.874023 274.303833,210.433655 
	C273.365570,209.933243 272.058563,210.059891 270.917633,210.016708 
	C268.278961,209.916794 265.637543,209.890656 262.997864,209.417938 
	C262.998108,207.056900 262.997711,205.112534 263.456696,203.110107 
	C267.476715,203.052078 271.037323,203.052078 274.639648,203.052078 
	C274.639648,197.608719 274.639648,193.069672 274.639648,187.834885 
	C270.523346,187.834885 266.760284,187.834885 262.997894,187.376587 
	C262.999023,124.945518 262.999512,62.972759 263.000000,1.000000 
z"/>
<path fill="#7597F3" opacity="1.000000" stroke="none" 
	d="
M230.468536,501.000000 
	C229.999451,435.020844 229.998901,369.041718 230.385452,302.545898 
	C238.690353,300.391968 245.531525,297.056732 250.080841,290.174255 
	C251.135818,291.313080 252.045822,292.155975 253.017822,293.424255 
	C253.038422,295.566193 252.996994,297.282654 252.599365,299.157593 
	C251.828781,301.507477 251.054489,303.698486 251.052322,305.890320 
	C250.987869,370.926849 251.000000,435.963409 251.000000,501.000000 
	C244.312363,501.000000 237.624710,501.000000 230.468536,501.000000 
z"/>
<path fill="#739CF2" opacity="1.000000" stroke="none" 
	d="
M251.468536,501.000000 
	C251.000000,435.963409 250.987869,370.926849 251.052322,305.890320 
	C251.054489,303.698486 251.828781,301.507477 252.744568,299.538147 
	C254.722473,300.172882 256.185486,300.874176 257.677979,300.943909 
	C262.111511,301.151123 266.556671,301.109680 270.997284,301.165466 
	C271.331512,305.297913 271.952820,309.430054 271.956970,313.562805 
	C272.019104,375.729370 272.000000,437.896057 272.000000,500.531342 
	C265.312347,501.000000 258.624725,501.000000 251.468536,501.000000 
z"/>
<path fill="#6BB4EE" opacity="1.000000" stroke="none" 
	d="
M352.998688,302.116394 
	C353.319305,321.055725 353.836334,339.994293 353.906708,358.934570 
	C353.980743,378.859650 353.523621,398.786224 353.495697,418.712433 
	C353.475403,433.202789 353.821899,447.693298 353.917908,462.184326 
	C353.992126,473.387634 353.963776,484.592072 353.891968,495.795410 
	C353.882568,497.262695 353.343170,498.726593 353.024658,500.596008 
	C346.645599,501.000000 340.291199,501.000000 333.468384,500.531342 
	C333.000000,435.874481 332.997894,371.686249 333.003784,307.498047 
	C333.004272,301.910675 333.057617,296.323273 333.349487,290.959747 
	C338.242310,298.076843 344.874481,301.419464 352.998688,302.116394 
z"/>
<path fill="#6FA8F0" opacity="1.000000" stroke="none" 
	d="
M292.468536,501.000000 
	C291.999725,435.007721 291.999451,369.015442 292.456238,302.512634 
	C298.276062,301.588531 303.638885,301.174988 309.395782,300.842590 
	C310.859161,301.004608 311.928467,301.085449 312.998291,301.624542 
	C312.999268,368.388519 312.999634,434.694244 313.000000,501.000000 
	C306.312347,501.000000 299.624725,501.000000 292.468536,501.000000 
z"/>
<path fill="#749AF2" opacity="1.000000" stroke="none" 
	d="
M262.531464,1.000000 
	C262.999512,62.972759 262.999023,124.945518 262.544250,187.432281 
	C259.190918,187.946289 256.291931,187.946289 253.352554,187.946289 
	C253.352554,193.387756 253.352554,197.929489 253.352554,203.168152 
	C256.796936,203.168152 259.897095,203.168152 262.997284,203.168152 
	C262.997711,205.112534 262.998108,207.056900 262.551575,209.473602 
	C259.408447,209.959930 256.712250,209.973938 253.929443,209.850998 
	C253.842834,209.714066 253.440002,209.681183 253.440002,209.681183 
	C253.440002,209.681183 253.324844,210.111298 253.269852,210.568542 
	C253.161377,216.370087 253.107910,221.714371 252.817413,227.022858 
	C252.580414,226.987045 252.108963,226.900116 252.047745,226.530151 
	C250.930450,219.152893 246.066376,214.969849 240.803864,211.082306 
	C241.535477,207.728897 242.898621,204.376740 242.905243,201.021912 
	C243.031723,136.926437 243.008423,72.830658 242.958771,8.734981 
	C242.957001,6.436685 242.369095,4.138842 242.027191,1.420393 
	C248.687637,1.000000 255.375290,1.000000 262.531464,1.000000 
z"/>
<path fill="#6DAEEF" opacity="1.000000" stroke="none" 
	d="
M313.468384,501.000000 
	C312.999634,434.694244 312.999268,368.388519 313.463531,301.567627 
	C317.704590,301.035370 321.495178,300.807739 325.253265,301.061707 
	C328.835022,301.303802 330.443573,300.214935 330.055145,296.412842 
	C329.783264,293.751434 330.002686,291.039825 330.002686,288.350616 
	C330.398956,288.286804 330.795227,288.222961 331.191528,288.159119 
	C331.823151,289.018066 332.454803,289.876984 333.086426,290.735901 
	C333.057617,296.323273 333.004272,301.910675 333.003784,307.498047 
	C332.997894,371.686249 333.000000,435.874481 333.000000,500.531342 
	C326.645599,501.000000 320.291199,501.000000 313.468384,501.000000 
z"/>
<path fill="#7C82F7" opacity="1.000000" stroke="none" 
	d="
M177.531723,1.000000 
	C177.999344,69.972336 177.998672,138.944672 177.588806,208.431747 
	C171.298584,209.145950 168.202271,211.599945 165.707870,217.904587 
	C165.484665,217.947601 165.031601,217.985367 164.997955,217.538269 
	C164.930359,212.935928 166.083038,207.916733 158.997986,208.433746 
	C158.999084,138.981079 158.999542,69.990540 159.000000,1.000000 
	C165.021149,1.000000 171.042297,1.000000 177.531723,1.000000 
z"/>
<path fill="#6EABEF" opacity="1.000000" stroke="none" 
	d="
M323.997894,203.167831 
	C323.998322,204.804306 323.998718,206.440765 323.534943,208.545166 
	C319.239136,209.035873 315.381622,208.814774 311.590424,209.217697 
	C310.314697,209.353287 309.207520,211.074722 307.667236,212.184021 
	C305.860901,212.476456 304.410706,212.656235 302.847656,212.684143 
	C302.568512,212.340042 302.377991,212.175903 302.107086,211.572449 
	C301.996033,205.418121 301.941132,199.731216 302.213196,193.818146 
	C303.026794,191.241638 303.935394,188.891830 303.938354,186.540863 
	C304.015991,124.693985 304.000000,62.846981 304.000000,1.000000 
	C310.354401,1.000000 316.708801,1.000000 323.531616,1.000000 
	C323.999634,62.972767 323.999298,124.945534 323.533997,187.432114 
	C318.180847,187.945923 313.292664,187.945923 308.373077,187.945923 
	C308.373077,193.392853 308.373077,197.930115 308.373077,203.167831 
	C313.822510,203.167831 318.910187,203.167831 323.997894,203.167831 
z"/>
<path fill="#7F77F8" opacity="1.000000" stroke="none" 
	d="
M119.991875,187.833359 
	C119.994583,125.868011 119.997292,63.902664 120.000000,1.468657 
	C126.687645,1.000000 133.375290,1.000000 140.531464,1.468657 
	C141.000000,60.949768 141.014404,119.962234 140.957520,178.974625 
	C140.954681,181.927811 140.333939,184.880417 139.535568,187.891663 
	C132.710785,187.911148 126.351326,187.872253 119.991875,187.833359 
z"/>
<path fill="#7E7CF8" opacity="1.000000" stroke="none" 
	d="
M140.000900,187.833282 
	C140.333939,184.880417 140.954681,181.927811 140.957520,178.974625 
	C141.014404,119.962234 141.000000,60.949768 141.000000,1.468657 
	C146.688034,1.000000 152.376083,1.000000 158.532059,1.000000 
	C158.999542,69.990540 158.999084,138.981079 158.535629,208.497803 
	C153.380157,209.090897 148.687683,209.157806 143.763168,209.238281 
	C143.217102,209.417908 143.080429,209.677429 142.831955,210.306473 
	C142.017624,210.615631 141.492416,210.648682 140.568863,210.444458 
	C136.777557,210.082489 133.384613,209.957840 129.991669,209.833176 
	C129.663101,207.863892 129.334549,205.894623 129.458374,203.484344 
	C133.468414,203.043350 137.026077,203.043350 141.448135,203.043350 
	C140.911133,197.399673 140.456024,192.616470 140.000900,187.833282 
z"/>
<path fill="#70A6F0" opacity="1.000000" stroke="none" 
	d="
M303.531616,1.000000 
	C304.000000,62.846981 304.015991,124.693985 303.938354,186.540863 
	C303.935394,188.891830 303.026794,191.241638 301.754211,193.802673 
	C295.644592,193.953674 290.320953,193.893997 284.997284,193.834320 
	C284.998169,132.963715 285.013092,72.093086 284.959778,11.222528 
	C284.957031,8.095017 284.369568,4.968022 284.027161,1.420394 
	C290.354401,1.000000 296.708801,1.000000 303.531616,1.000000 
z"/>
<path fill="#E0FFFD" opacity="1.000000" stroke="none" 
	d="
M308.023315,212.071350 
	C309.207520,211.074722 310.314697,209.353287 311.590424,209.217697 
	C315.381622,208.814774 319.239136,209.035873 323.534485,208.954269 
	C325.386719,208.969559 326.775238,209.043655 328.708313,209.306213 
	C329.438385,209.690125 329.643982,209.861572 329.869629,210.009018 
	C329.869629,213.787521 329.869629,217.566025 329.869629,221.211136 
	C334.975281,217.394165 339.696930,213.864258 344.708191,210.142181 
	C352.009888,209.649857 359.021973,209.349716 366.496460,209.106598 
	C379.642456,213.630096 385.333496,222.864746 383.472412,237.054581 
	C379.381897,237.054581 375.155182,237.054581 370.025269,237.052261 
	C362.063721,236.919434 362.095215,236.914383 360.984497,229.983887 
	C360.517059,227.067215 358.794464,224.418945 355.842163,225.531113 
	C354.082489,226.194046 352.183075,229.511810 352.348816,231.466217 
	C352.540405,233.724777 354.541809,236.267776 356.450104,237.853790 
	C360.741211,241.420151 365.460205,244.471741 370.005035,247.732849 
	C376.033295,253.173294 382.186890,258.654938 383.483307,267.214020 
	C384.169037,271.741333 383.806976,276.421844 384.096100,281.022034 
	C384.129517,281.553802 385.306732,282.013702 386.246521,282.116241 
	C386.692383,281.584076 386.825500,281.425873 386.938690,281.250916 
	C387.218628,281.048462 387.498596,280.846008 387.921143,280.427673 
	C396.767914,275.072327 404.524536,277.703644 409.080566,287.652466 
	C408.167297,291.761597 407.148743,295.524017 405.958191,299.608521 
	C397.071411,304.693329 391.051727,304.557922 386.550568,298.801941 
	C384.505676,296.187012 383.568665,292.705750 382.077576,289.506866 
	C380.409576,291.431671 378.344208,293.815063 376.099854,296.464844 
	C369.179779,300.972198 361.805878,302.577667 353.455109,302.065948 
	C344.874481,301.419464 338.242310,298.076843 333.349487,290.959747 
	C332.454803,289.876984 331.823151,289.018066 331.191528,288.159119 
	C330.795227,288.222961 330.398956,288.286804 330.002686,288.350616 
	C330.002686,291.039825 329.783264,293.751434 330.055145,296.412842 
	C330.443573,300.214935 328.835022,301.303802 325.253265,301.061707 
	C321.495178,300.807739 317.704590,301.035370 313.462952,301.109436 
	C311.928467,301.085449 310.859161,301.004608 309.395813,300.554749 
	C309.003204,299.801636 309.004639,299.417480 309.002014,298.563354 
	C308.757172,293.076752 308.516418,288.060120 308.234314,282.574066 
	C308.135223,264.713837 308.077515,247.323013 308.012512,229.711578 
	C308.005188,229.490952 307.991486,229.049667 308.229004,228.706055 
	C308.308075,223.224594 308.149689,218.086746 307.998383,212.729477 
	C308.005493,212.510056 308.023315,212.071335 308.023315,212.071350 
M330.999023,240.371902 
	C330.905457,239.655029 330.811890,238.938141 330.718323,238.221252 
	C330.510620,238.240341 330.302917,238.259430 330.095215,238.278503 
	C330.143738,239.206619 330.192261,240.134720 330.154877,241.988113 
	C330.137238,249.144867 330.258484,256.305817 330.041656,263.456543 
	C329.937897,266.879059 330.998413,268.222198 334.554565,268.067657 
	C340.150665,267.824585 345.765076,268.003082 352.110352,268.003082 
	C352.110352,272.419434 351.708893,276.265137 352.303833,279.949921 
	C352.548889,281.467773 354.817688,283.497131 356.384918,283.714386 
	C357.795837,283.910004 360.105164,282.284698 360.920380,280.842102 
	C361.781158,279.318939 361.632996,277.029724 361.422211,275.131042 
	C360.549561,267.270142 354.313080,263.482574 348.776215,259.393738 
	C341.788239,254.233292 335.109192,248.891785 330.999023,240.371902 
M384.613770,286.086945 
	C384.613770,286.086945 384.451050,285.853760 384.451050,285.853760 
	C384.451050,285.853760 384.471039,286.155945 384.613770,286.086945 
z"/>
<path fill="#E0FFFD" opacity="1.000000" stroke="none" 
	d="
M129.541840,209.889343 
	C133.384613,209.957840 136.777557,210.082489 140.582764,210.816315 
	C141.659073,222.225510 142.353882,233.023819 142.950790,243.827545 
	C143.031387,245.286209 142.438736,246.775696 142.468079,248.244720 
	C142.589401,254.317032 142.830063,260.386963 142.682648,266.621887 
	C142.567917,267.371368 142.797409,267.956787 142.915436,268.893860 
	C142.534805,278.489441 142.265625,287.733368 141.996429,296.977295 
	C141.279266,299.935242 139.640503,301.257996 136.370270,301.069214 
	C131.571198,300.792206 126.742645,301.026001 121.460625,301.104218 
	C120.380379,299.660004 119.235123,298.155334 119.230545,296.647217 
	C119.143852,268.106628 119.191917,239.565628 119.447266,210.553574 
	C119.682625,210.082443 120.024162,209.982086 120.024162,209.982086 
	C123.046776,209.969894 126.069397,209.957703 129.541840,209.889343 
z"/>
<path fill="#E0FFFD" opacity="1.000000" stroke="none" 
	d="
M139.535568,187.891663 
	C140.456024,192.616470 140.911133,197.399673 141.448135,203.043350 
	C137.026077,203.043350 133.468414,203.043350 129.451477,203.106384 
	C125.889977,203.169434 122.787758,203.169434 119.336548,203.169434 
	C119.336548,197.835648 119.336548,193.121460 119.664215,188.120316 
	C126.351326,187.872253 132.710785,187.911148 139.535568,187.891663 
z"/>
<path fill="#C7DAFC" opacity="1.000000" stroke="none" 
	d="
M119.937439,209.833466 
	C120.024162,209.982086 119.682625,210.082443 119.505341,210.095520 
	C119.502274,209.967346 119.676491,209.826096 119.937439,209.833466 
z"/>
<path fill="#E0FFFD" opacity="1.000000" stroke="none" 
	d="
M143.026886,266.457794 
	C142.830063,260.386963 142.589401,254.317032 142.468079,248.244720 
	C142.438736,246.775696 143.031387,245.286209 142.950790,243.827545 
	C142.353882,233.023819 141.659073,222.225510 140.981125,211.053619 
	C141.492416,210.648682 142.017624,210.615631 142.995926,210.192825 
	C143.659088,209.636734 143.841141,209.443954 143.995209,209.224731 
	C148.687683,209.157806 153.380157,209.090897 158.534973,208.959930 
	C166.083038,207.916733 164.930359,212.935928 164.838226,217.707001 
	C164.836578,218.672318 164.961014,219.021805 165.085449,219.371277 
	C165.367325,218.868042 165.649200,218.364807 165.931091,217.861572 
	C168.202271,211.599945 171.298584,209.145950 177.587891,208.889954 
	C191.493576,209.558762 196.347092,214.889206 196.897217,229.662735 
	C197.001419,232.460892 196.956467,235.264618 196.973816,238.991806 
	C197.010361,250.949692 197.053436,261.981537 197.096512,273.013367 
	C197.021774,281.701111 196.947052,290.388855 196.677490,299.662994 
	C196.296707,300.424896 196.136246,300.621246 196.001297,300.838470 
	C191.307846,300.907379 186.614410,300.976288 181.457733,301.105835 
	C179.347336,301.040497 177.700150,300.914520 175.422607,300.740356 
	C175.328506,298.777985 175.159500,296.871124 175.157578,294.964050 
	C175.137711,275.178925 175.146515,255.393814 175.140762,235.608704 
	C175.140335,234.113007 175.249130,232.593353 175.028946,231.126617 
	C174.580444,228.138885 173.589432,225.744507 169.731140,225.958496 
	C166.167511,226.156128 165.292389,228.430847 165.112717,231.247910 
	C164.901352,234.562103 164.931946,237.894226 164.926865,241.218674 
	C164.897400,260.504791 164.888306,279.790894 164.675934,299.661957 
	C164.293686,300.421539 164.134369,300.617737 164.001587,300.835449 
	C159.640259,300.904877 155.278946,300.974304 150.455933,301.105225 
	C147.493607,300.237579 143.725479,302.769409 142.237915,297.695923 
	C142.265625,287.733368 142.534805,278.489441 142.922028,268.372681 
	C143.035645,267.152527 143.031265,266.805145 143.026886,266.457794 
z"/>
<path fill="#D0ECFC" opacity="1.000000" stroke="none" 
	d="
M164.221634,300.804504 
	C164.134369,300.617737 164.293686,300.421539 164.628174,300.128967 
	C164.853500,300.348022 164.741806,300.602203 164.221634,300.804504 
z"/>
<path fill="#E0FFFD" opacity="1.000000" stroke="none" 
	d="
M240.426636,211.014374 
	C246.066376,214.969849 250.930450,219.152893 251.998993,227.003784 
	C251.996964,233.276260 251.982452,238.705124 251.976349,244.355713 
	C251.995300,244.873123 252.004318,245.168839 251.548386,245.535873 
	C245.390717,245.705643 239.696457,245.804138 233.607880,245.825073 
	C232.143784,244.453659 230.351181,243.262375 230.150055,241.845245 
	C229.687592,238.586472 229.887619,235.213058 230.027237,231.894958 
	C230.182236,228.211517 228.857895,225.342514 225.003067,225.429367 
	C221.267776,225.513504 219.905701,228.288193 219.957672,232.026169 
	C220.094009,241.830261 219.994263,251.637589 219.994888,261.443634 
	C219.995224,266.928314 219.880554,272.417267 220.062805,277.896118 
	C220.173355,281.219391 220.941788,284.260468 225.445129,284.015503 
	C229.636261,283.787506 230.059097,281.049103 230.013596,277.782837 
	C229.958023,273.794739 230.213791,269.790314 229.935638,265.820984 
	C229.708481,262.579407 231.224503,261.716095 234.462051,261.892151 
	C240.616348,261.940735 246.305557,261.931396 251.996368,262.396271 
	C252.329651,269.273621 252.661331,275.676788 252.999847,282.289368 
	C253.006653,282.498779 253.020370,282.917603 252.722626,283.109558 
	C251.595230,285.493805 250.765549,287.686066 249.935867,289.878326 
	C245.531525,297.056732 238.690353,300.391968 230.384674,302.086212 
	C222.658478,302.109406 215.263016,302.368896 208.414749,297.906403 
	C200.620239,291.559113 197.797989,283.358337 197.948517,272.994049 
	C197.915695,261.050415 197.877045,250.014206 197.838394,238.977982 
	C198.857162,233.241928 199.875946,227.505859 200.898209,221.385040 
	C205.101532,214.112427 210.612198,209.212051 219.587830,208.889557 
	C226.680801,209.537750 233.365097,210.242081 240.426636,211.014374 
z"/>
<path fill="#8395F6" opacity="1.000000" stroke="none" 
	d="
M197.652603,238.979996 
	C197.877045,250.014206 197.915695,261.050415 197.895355,272.553619 
	C197.836380,273.020599 197.466370,273.016846 197.281433,273.015106 
	C197.053436,261.981537 197.010361,250.949692 197.031250,239.451660 
	C197.095230,238.985489 197.466812,238.982010 197.652603,238.979996 
z"/>
<path fill="#CFEDFC" opacity="1.000000" stroke="none" 
	d="
M196.219772,300.803894 
	C196.136246,300.621246 196.296707,300.424896 196.630951,300.130066 
	C196.847870,300.345551 196.734222,300.598450 196.219772,300.803894 
z"/>
<path fill="#6BBBED" opacity="1.000000" stroke="none" 
	d="
M370.003845,247.298920 
	C365.460205,244.471741 360.741211,241.420151 356.450104,237.853790 
	C354.541809,236.267776 352.540405,233.724777 352.348816,231.466217 
	C352.183075,229.511810 354.082489,226.194046 355.842163,225.531113 
	C358.794464,224.418945 360.517059,227.067215 360.984497,229.983887 
	C362.095215,236.914383 362.063721,236.919434 369.562622,237.105194 
	C370.002960,240.395309 370.002808,243.630142 370.003845,247.298920 
z"/>
<path fill="#DFFEFD" opacity="1.000000" stroke="none" 
	d="
M386.759827,281.277222 
	C386.825500,281.425873 386.692383,281.584076 386.419312,281.823364 
	C386.243286,281.646881 386.337189,281.441010 386.759827,281.277222 
z"/>
<path fill="#E0FFFD" opacity="1.000000" stroke="none" 
	d="
M253.020370,282.917603 
	C253.020370,282.917603 253.006653,282.498779 253.241760,281.942444 
	C253.334595,274.596222 253.192337,267.806396 253.082550,260.550323 
	C252.747253,255.210938 252.379532,250.337769 252.011795,245.464600 
	C252.004318,245.168839 251.995300,244.873123 252.343750,244.193756 
	C252.819977,238.226257 252.937210,232.642456 253.054443,227.058670 
	C253.107910,221.714371 253.161377,216.370087 253.444611,210.550247 
	C253.674377,210.074707 254.016068,209.987930 254.016068,209.987930 
	C256.712250,209.973938 259.408447,209.959930 262.550934,209.890274 
	C265.637543,209.890656 268.278961,209.916794 270.917633,210.016708 
	C272.058563,210.059891 273.365570,209.933243 274.303833,210.433655 
	C280.754608,213.874023 280.792145,213.882843 280.804840,206.468048 
	C280.810211,203.329529 280.519897,200.146820 280.975952,197.075027 
	C281.149872,195.903549 283.037262,194.986420 284.570526,193.893845 
	C290.320953,193.893997 295.644592,193.953674 301.427246,194.028839 
	C301.941132,199.731216 301.996033,205.418121 302.133545,211.789612 
	C302.381134,212.765808 302.629242,212.886414 302.960510,212.835999 
	C304.410706,212.656235 305.860901,212.476456 307.667206,212.184021 
	C308.023315,212.071335 308.005493,212.510056 308.002991,213.202301 
	C307.997498,218.946259 307.994507,223.997955 307.991486,229.049667 
	C307.991486,229.049667 308.005188,229.490952 307.574982,229.734970 
	C305.560089,230.101868 303.975372,230.224731 302.023651,230.376068 
	C302.023651,247.903259 302.021637,264.976593 302.025330,282.049927 
	C302.026062,285.379211 303.879150,286.389160 307.158234,286.234192 
	C307.943634,290.722473 308.474854,294.877899 309.006073,299.033325 
	C309.004639,299.417480 309.003204,299.801636 309.001709,300.473633 
	C303.638885,301.174988 298.276062,301.588531 292.455750,302.050110 
	C284.298248,300.563202 280.980682,296.959686 280.917603,289.212952 
	C280.767212,270.741089 280.808563,252.267441 280.830780,233.794601 
	C280.834137,231.003082 280.596649,228.341995 276.937866,229.522079 
	C275.954285,229.839325 275.193665,232.411026 275.185181,233.952515 
	C275.070770,254.755035 275.108521,275.558380 275.105377,296.361511 
	C275.105011,298.671448 275.566040,301.316589 271.421539,301.103943 
	C266.556671,301.109680 262.111511,301.151123 257.677979,300.943909 
	C256.185486,300.874176 254.722473,300.172882 253.100769,299.379700 
	C252.996994,297.282654 253.038422,295.566193 253.083038,292.972382 
	C253.064285,289.035919 253.042328,285.976746 253.020370,282.917603 
z"/>
<path fill="#E0FFFD" opacity="1.000000" stroke="none" 
	d="
M324.431091,203.111145 
	C318.910187,203.167831 313.822510,203.167831 308.373077,203.167831 
	C308.373077,197.930115 308.373077,193.392853 308.373077,187.945923 
	C313.292664,187.945923 318.180847,187.945923 323.533447,187.890427 
	C325.781006,187.988129 327.564117,188.141342 329.662598,188.321640 
	C329.662598,193.073090 329.662598,197.619598 329.662598,202.628540 
	C328.022980,202.774078 326.443634,202.914276 324.431091,203.111145 
z"/>
<path fill="#C6ECFA" opacity="1.000000" stroke="none" 
	d="
M329.818726,209.788788 
	C329.643982,209.861572 329.438385,209.690125 329.124329,209.340546 
	C329.333618,209.151245 329.590942,209.278610 329.818726,209.788788 
z"/>
<path fill="#E0FFFD" opacity="1.000000" stroke="none" 
	d="
M263.456696,203.110107 
	C259.897095,203.168152 256.796936,203.168152 253.352554,203.168152 
	C253.352554,197.929489 253.352554,193.387756 253.352554,187.946289 
	C256.291931,187.946289 259.190918,187.946289 262.543579,187.890594 
	C266.760284,187.834885 270.523346,187.834885 274.639648,187.834885 
	C274.639648,193.069672 274.639648,197.608719 274.639648,203.052078 
	C271.037323,203.052078 267.476715,203.052078 263.456696,203.110107 
z"/>
<path fill="#739CF2" opacity="1.000000" stroke="none" 
	d="
M252.722626,283.109558 
	C253.042328,285.976746 253.064285,289.035919 253.021027,292.546936 
	C252.045822,292.155975 251.135818,291.313080 250.080841,290.174255 
	C250.765549,287.686066 251.595230,285.493805 252.722626,283.109558 
z"/>
<path fill="#AFD0F9" opacity="1.000000" stroke="none" 
	d="
M252.817429,227.022858 
	C252.937210,232.642456 252.819977,238.226257 252.335358,243.972015 
	C251.982452,238.705124 251.996964,233.276260 252.060211,227.373749 
	C252.108963,226.900116 252.580414,226.987045 252.817429,227.022858 
z"/>
<path fill="#C3E4FA" opacity="1.000000" stroke="none" 
	d="
M253.929443,209.850998 
	C254.016068,209.987930 253.674377,210.074707 253.499603,210.093002 
	C253.324844,210.111298 253.440002,209.681183 253.440002,209.681183 
	C253.440002,209.681183 253.842834,209.714066 253.929443,209.850998 
z"/>
<path fill="#CFEBFC" opacity="1.000000" stroke="none" 
	d="
M165.707886,217.904587 
	C165.649200,218.364807 165.367325,218.868042 165.085449,219.371277 
	C164.961014,219.021805 164.836578,218.672318 164.871872,218.154114 
	C165.031601,217.985367 165.484665,217.947601 165.707886,217.904587 
z"/>
<path fill="#70A6F0" opacity="1.000000" stroke="none" 
	d="
M302.847656,212.684143 
	C302.629242,212.886414 302.381134,212.765808 302.189697,212.257019 
	C302.377991,212.175903 302.568512,212.340042 302.847656,212.684143 
z"/>
<path fill="#CFEBFC" opacity="1.000000" stroke="none" 
	d="
M143.763168,209.238281 
	C143.841141,209.443954 143.659088,209.636734 143.285065,209.916733 
	C143.080429,209.677429 143.217102,209.417908 143.763168,209.238281 
z"/>
<path fill="#6CB5EE" opacity="1.000000" stroke="none" 
	d="
M331.001831,240.999939 
	C335.109192,248.891785 341.788239,254.233292 348.776215,259.393738 
	C354.313080,263.482574 360.549561,267.270142 361.422211,275.131042 
	C361.632996,277.029724 361.781158,279.318939 360.920380,280.842102 
	C360.105164,282.284698 357.795837,283.910004 356.384918,283.714386 
	C354.817688,283.497131 352.548889,281.467773 352.303833,279.949921 
	C351.708893,276.265137 352.110352,272.419434 352.110352,268.003082 
	C345.765076,268.003082 340.150665,267.824585 334.554565,268.067657 
	C330.998413,268.222198 329.937897,266.879059 330.041656,263.456543 
	C330.258484,256.305817 330.137238,249.144867 330.388336,241.515167 
	C330.621796,241.042221 331.001831,240.999939 331.001831,240.999939 
z"/>
<path fill="#6FA9F0" opacity="1.000000" stroke="none" 
	d="
M306.904053,285.901337 
	C303.879150,286.389160 302.026062,285.379211 302.025330,282.049927 
	C302.021637,264.976593 302.023651,247.903259 302.023651,230.376068 
	C303.975372,230.224731 305.560089,230.101868 307.582275,229.955597 
	C308.077515,247.323013 308.135223,264.713837 308.123688,282.873077 
	C307.670990,284.394775 307.287537,285.148071 306.904053,285.901337 
z"/>
<path fill="#C6ECFA" opacity="1.000000" stroke="none" 
	d="
M307.158234,286.234192 
	C307.287537,285.148071 307.670990,284.394775 308.165039,283.342499 
	C308.516418,288.060120 308.757172,293.076752 309.002014,298.563354 
	C308.474854,294.877899 307.943634,290.722473 307.158234,286.234192 
z"/>
<path fill="#C6ECFA" opacity="1.000000" stroke="none" 
	d="
M308.229004,228.706055 
	C307.994507,223.997955 307.997498,218.946259 307.995880,213.421722 
	C308.149689,218.086746 308.308075,223.224594 308.229004,228.706055 
z"/>
<path fill="#86C2F2" opacity="1.000000" stroke="none" 
	d="
M331.000427,240.685913 
	C331.001831,240.999939 330.621796,241.042221 330.431274,241.052521 
	C330.192261,240.134720 330.143738,239.206619 330.095215,238.278503 
	C330.302917,238.259430 330.510620,238.240341 330.718323,238.221252 
	C330.811890,238.938141 330.905457,239.655029 331.000427,240.685913 
z"/>
<path fill="#DFFEFD" opacity="1.000000" stroke="none" 
	d="
M384.542419,286.121460 
	C384.471039,286.155945 384.451050,285.853760 384.451050,285.853760 
	C384.451050,285.853760 384.613770,286.086945 384.542419,286.121460 
z"/>
<path fill="#9397F9" opacity="1.000000" stroke="none" 
	d="
M142.682663,266.621887 
	C143.031265,266.805145 143.035645,267.152527 143.033463,268.021057 
	C142.797409,267.956787 142.567917,267.371368 142.682663,266.621887 
z"/>
<path fill="#7793F4" opacity="1.000000" stroke="none" 
	d="
M233.996979,261.834167 
	C231.224503,261.716095 229.708481,262.579407 229.935638,265.820984 
	C230.213791,269.790314 229.958023,273.794739 230.013596,277.782837 
	C230.059097,281.049103 229.636261,283.787506 225.445129,284.015503 
	C220.941788,284.260468 220.173355,281.219391 220.062805,277.896118 
	C219.880554,272.417267 219.995224,266.928314 219.994888,261.443634 
	C219.994263,251.637589 220.094009,241.830261 219.957672,232.026169 
	C219.905701,228.288193 221.267776,225.513504 225.003067,225.429367 
	C228.857895,225.342514 230.182236,228.211517 230.027237,231.894958 
	C229.887619,235.213058 229.687592,238.586472 230.150055,241.845245 
	C230.351181,243.262375 232.143784,244.453659 233.607315,246.299988 
	C233.999695,251.846375 233.998337,256.840271 233.996979,261.834167 
z"/>
<path fill="#7597F3" opacity="1.000000" stroke="none" 
	d="
M234.462051,261.892151 
	C233.998337,256.840271 233.999695,251.846375 234.001617,246.377563 
	C239.696457,245.804138 245.390717,245.705643 251.548386,245.535873 
	C252.379532,250.337769 252.747253,255.210938 252.853333,260.630981 
	C252.298325,261.350220 252.099365,261.598267 251.994781,261.922058 
	C246.305557,261.931396 240.616348,261.940735 234.462051,261.892151 
z"/>
<path fill="#C3E4FA" opacity="1.000000" stroke="none" 
	d="
M251.996368,262.396240 
	C252.099365,261.598267 252.298325,261.350220 252.820877,261.097198 
	C253.192337,267.806396 253.334595,274.596222 253.234940,281.733002 
	C252.661331,275.676788 252.329651,269.273621 251.996368,262.396240 
z"/>
</svg>